Coordinates
version=1
nRows=49
nColumns=12
inDegrees=yes

Units are S.I. units (second, meters, Newtons, ...)
Angles are in degrees

endheader
time	SC_y	SC_z	SC_x	AC_y	AC_z	AC_x	GH_y	GH_z	GH_yy	EL_x	PS_y
       0.0              -44.59          10.34          27.76          69.37         0.5892         -10.48          21.25          14.59           63.3          35.38          21.62
   0.01864              -44.59          10.34          27.76          69.37         0.5905         -10.48          21.24           14.6           63.3          35.38          21.64
   0.03728              -44.59          10.34          27.75          69.37         0.5918         -10.47          21.23          14.61          63.31          35.39          21.66
   0.05592               -44.6          10.34          27.75          69.36         0.5932         -10.47          21.22          14.62          63.32           35.4          21.68
   0.07455               -44.6          10.34          27.75          69.36         0.5947         -10.46          21.21          14.63          63.32           35.4          21.71
   0.09319               -44.6          10.33          27.74          69.36         0.5963         -10.46           21.2          14.64          63.33          35.41          21.73
    0.1118              -44.61          10.33          27.74          69.35         0.5979         -10.45          21.18          14.65          63.34          35.42          21.76
    0.1305              -44.61          10.33          27.74          69.35         0.5998         -10.45          21.17          14.66          63.34          35.43          21.79
    0.1491              -44.61          10.33          27.73          69.34         0.6017         -10.44          21.15          14.67          63.35          35.44          21.82
    0.1677              -44.62          10.33          27.73          69.34         0.6038         -10.43          21.13          14.69          63.36          35.45          21.85
    0.1864              -44.62          10.32          27.72          69.33          0.606         -10.43          21.12           14.7          63.37          35.46          21.89
     0.205              -44.62          10.32          27.72          69.33         0.6084         -10.42           21.1          14.72          63.38          35.47          21.93
    0.2237              -44.63          10.32          27.71          69.32          0.611         -10.41          21.08          14.74          63.39          35.48          21.97
    0.2423              -44.63          10.31           27.7          69.31         0.6138          -10.4          21.05          14.76          63.41          35.49          22.01
    0.2609              -44.64          10.31           27.7          69.31         0.6169         -10.39          21.03          14.78          63.42          35.51          22.06
    0.2796              -44.64          10.31          27.69           69.3         0.6202         -10.38           21.0           14.8          63.43          35.52          22.11
    0.2982              -44.65           10.3          27.68          69.29         0.6237         -10.37          20.97          14.82          63.45          35.54          22.17
    0.3169              -44.66           10.3          27.67          69.28         0.6276         -10.35          20.94          14.85          63.46          35.56          22.23
    0.3355              -44.66          10.29          27.66          69.27         0.6319         -10.34           20.9          14.87          63.48          35.58           22.3
    0.3541              -44.67          10.29          27.65          69.26         0.6365         -10.32          20.87          14.91           63.5           35.6          22.37
    0.3728              -44.68          10.28          27.64          69.25         0.6417          -10.3          20.82          14.94          63.53          35.62          22.46
    0.3914              -44.69          10.27          27.63          69.23         0.6473         -10.29          20.78          14.98          63.55          35.65          22.55
    0.4101               -44.7          10.27          27.61          69.22         0.6535         -10.26          20.73          15.02          63.58          35.68          22.64
    0.4287              -44.71          10.26           27.6           69.2         0.6604         -10.24          20.67          15.06          63.61          35.71          22.75
    0.4473              -44.73          10.25          27.58          69.18         0.6681         -10.22          20.61          15.11          63.64          35.75          22.88
     0.466              -44.74          10.24          27.56          69.16         0.6766         -10.19          20.54          15.17          63.68          35.79          23.01
    0.4846              -44.76          10.23          27.54          69.14         0.6862         -10.15          20.46          15.24          63.72          35.83          23.16
    0.5032              -44.78          10.21          27.51          69.12         0.6969         -10.12          20.37          15.31          63.76          35.88          23.34
    0.5219               -44.8           10.2          27.48          69.09         0.7091         -10.08          20.27          15.39          63.82          35.94          23.53
    0.5405              -44.82          10.18          27.45          69.05         0.7229         -10.03          20.15          15.48          63.88          36.01          23.75
    0.5592              -44.85          10.16          27.42          69.02         0.7387         -9.976          20.03          15.58          63.94          36.08           24.0
    0.5778              -44.88          10.14          27.37          68.97         0.7568         -9.915          19.88           15.7          64.02          36.16          24.29
    0.5964              -44.92          10.11          27.33          68.92         0.7777         -9.844           19.7          15.84          64.11          36.26          24.62
    0.6151              -44.96          10.09          27.27          68.86          0.802         -9.762           19.5           16.0          64.22          36.38          25.01
    0.6337              -45.01          10.05           27.2           68.8         0.8304         -9.666          19.27          16.19          64.34          36.51          25.46
    0.6524              -45.07          10.01          27.13          68.72         0.8639         -9.553           19.0          16.41          64.49          36.67          25.99
     0.671              -45.14          9.962          27.03          68.62         0.9037         -9.418          18.67          16.68          64.66          36.85          26.62
    0.6896              -45.22          9.904          26.92          68.51         0.9514         -9.257          18.28          16.99          64.86          37.08          27.38
    0.7083              -45.32          9.834          26.79          68.37          1.009         -9.062           17.8          17.38          65.11          37.35           28.3
    0.7269              -45.45          9.748          26.63           68.2           1.08         -8.823          17.22          17.85          65.42          37.68          29.42
    0.7455               -45.6          9.643          26.43          67.99          1.167         -8.529          16.51          18.42          65.79          38.09          30.81
    0.7642              -45.79          9.511          26.18          67.73          1.275         -8.162          15.61          19.14          66.26          38.59          32.53
    0.7828              -46.03          9.345          25.86           67.4          1.412         -7.699          14.49          20.05          66.85          39.24          34.71
    0.8015              -46.33          9.134          25.46          66.99          1.586         -7.111          13.06           21.2           67.6          40.05          37.47
    0.8201              -46.72          8.864          24.95          66.45          1.808         -6.359          11.23          22.68          68.56          41.09          41.01
    0.8387              -47.22          8.518          24.29          65.77          2.093         -5.394          8.884          24.57           69.8          42.43          45.55
    0.8574              -47.85          8.075          23.44           64.9          2.458          -4.16          5.886          26.99          71.37          44.14          51.35
     0.876              -48.65          7.519          22.39           63.8          2.916          -2.61          2.116          30.03          73.35          46.29          58.65
    0.8947              -49.63          6.841           21.1          62.46          3.475        -0.7197         -2.479          33.74          75.77          48.91          67.53
